<svg width="391" height="846" viewBox="0 0 391 846" fill="none" xmlns="http://www.w3.org/2000/svg">
<mask id="mask0_2_608" style="mask-type:alpha" maskUnits="userSpaceOnUse" x="0" y="0" width="391" height="846">
<rect width="391" height="846" fill="#D9D9D9" fill-opacity="0.7"/>
</mask>
<g mask="url(#mask0_2_608)">
<mask id="mask1_2_608" style="mask-type:luminance" maskUnits="userSpaceOnUse" x="-213" y="0" width="1482" height="988">
<path d="M-213 988L1269 988L1269 0L-213 0L-213 988Z" fill="white"/>
</mask>
<g mask="url(#mask1_2_608)">
<g opacity="0.67">
<path d="M-55.8202 747.676C246.705 711.317 553.183 877.301 851.559 816.836C1001.34 786.405 1132.55 701.635 1259.41 618.248C1296.55 593.745 1348.52 569.836 1382.31 599.081C1405.63 619.433 1405.83 654.409 1403.46 684.839C1395.16 796.878 1380.14 908.522 1358.6 1018.78C1335.88 1134.97 1299.52 1259.26 1202.69 1329.01C1108.04 1397.19 979.999 1395.8 862.822 1385.73C461.101 1350.75 68.6678 1245.23 -318.431 1131.61C-357.16 1120.15 -398.854 1106.71 -421.973 1074.11C-444.104 1043.09 -443.906 1001 -431.062 965.629C-379.291 823.357 -194.733 764.472 -55.8202 747.676Z" fill="url(#paint0_linear_2_608)"/>
<path d="M-364.669 1065.61C-395.099 1029.26 -415.65 984.401 -423.159 937.767C-427.901 908.917 -427.506 878.882 -420.59 850.428C-417.231 836.398 -412.291 822.764 -405.572 810.117C-402.213 803.597 -398.459 797.471 -394.309 791.543C-389.962 785.22 -389.171 777.316 -384.231 770.993C-380.082 765.855 -375.735 766.053 -370.202 763.879C-365.064 762.101 -360.124 758.149 -355.184 755.777C-344.712 750.64 -334.041 746.293 -322.975 742.341C-300.647 734.634 -277.33 729.497 -254.013 726.533C-189.003 718.233 -122.411 725.347 -58.5865 739.969C105.817 777.513 258.166 855.17 420 902.792C581.835 950.413 765.801 965.036 910.444 881.253C1004.11 827.111 1070.5 737.796 1142.43 657.373C1184.12 610.937 1228.18 566.674 1274.82 524.981C1296.16 505.813 1322.24 485.856 1351.09 490.203C1395.55 496.724 1410.57 551.657 1413.73 595.721C1420.65 693.731 1418.28 792.136 1406.62 889.553C1392.98 1003.17 1363.74 1120.94 1283.91 1203.74C1208.03 1282.38 1096.39 1318.34 986.915 1333.95C799.788 1360.63 609.104 1336.72 421.384 1312.81C248.879 1290.88 75.3861 1268.55 -91.3883 1219.74C-193.35 1189.51 -296.892 1146.63 -364.669 1065.61Z" fill="url(#paint1_linear_2_608)"/>
<path d="M-5.82739 851.811C155.217 873.942 291.363 980.646 446.677 1028.47C640.325 1087.75 864.996 1046.25 1013.39 912.277C1058.05 871.966 1096.19 823.949 1146.58 790.753C1196.96 757.556 1266.12 742.143 1318.49 773.166C1358.4 796.878 1379.94 842.326 1390.22 887.181C1430.33 1060.28 1333.31 1243.06 1187.48 1346.21C1041.85 1449.35 856.894 1484.92 677.078 1492.63C444.305 1502.51 210.742 1470.1 -16.1027 1415.56C-116.483 1391.46 -218.643 1361.62 -300.251 1299.18C-373.561 1243.06 -449.835 1130.62 -422.566 1034C-410.907 992.502 -354.789 952.587 -320.407 928.875C-278.12 899.63 -230.894 877.697 -181.099 864.062C-124.585 848.452 -64.5145 843.709 -5.82739 851.811Z" fill="url(#paint2_linear_2_608)"/>
<path d="M-67.6761 971.557C41.9918 957.329 152.845 987.76 256.19 1027.48C359.535 1067.2 459.521 1116.99 566.817 1143.86C657.911 1166.59 757.897 1171.73 841.679 1131.02C933.365 1086.56 990.867 995.664 1038.29 906.546C1085.52 817.429 1129.78 722.778 1208.23 658.558C1252.88 622.002 1320.46 597.697 1368.28 631.092C1414.92 663.498 1415.9 729.694 1412.15 785.615C1406.81 865.05 1401.48 945.078 1381.72 1022.14C1361.96 1099.21 1326.79 1174.1 1269.29 1229.82C1186.49 1309.45 1068.52 1341.07 954.706 1363.4C607.918 1431.57 243.939 1439.28 -98.1064 1346.4C-151.854 1331.78 -206.194 1314.2 -250.654 1281.2C-295.706 1247.8 -345.304 1186.35 -310.922 1132.4C-275.947 1077.47 -234.846 1032.81 -174.775 1003.57C-141.183 987.365 -104.825 976.497 -67.6761 971.557Z" fill="url(#paint3_linear_2_608)"/>
<path opacity="0.51" d="M865.391 740.562C769.753 818.219 679.054 916.229 556.345 934.606C447.862 950.809 337.799 899.828 229.119 913.265C47.9199 935.791 -73.8015 1126.87 -254.803 1150.19C-280.689 1153.55 -307.365 1153.35 -332.262 1161.06C-357.16 1168.76 -380.872 1187.14 -385.022 1212.43C-391.938 1255.11 -344.118 1285.35 -303.018 1300.96C-175.961 1349.37 -41.7905 1376.83 92.3799 1398.18C348.272 1438.68 607.326 1457.46 866.181 1458.05C981.975 1458.25 1104.68 1452.71 1200.32 1389.48C1321.45 1309.26 1368.09 1158.68 1406.42 1019.77C1442.19 889.948 1485.86 735.82 1435.07 603.428C1416.1 553.83 1307.03 565.094 1262.17 568.65C1194 574.183 1127.41 592.758 1064.97 619.434C993.041 649.864 925.857 691.558 865.391 740.562Z" fill="url(#paint4_linear_2_608)"/>
<path d="M-281.875 773.166C-166.871 713.689 -24.4018 731.67 96.727 779.687C217.856 827.704 325.745 903.187 442.527 960.886C559.506 1018.59 693.281 1058.5 819.745 1028.27C925.659 1002.98 1013.59 931.444 1085.52 851.218C1157.25 770.993 1216.72 680.492 1289.84 601.452C1331.92 556.004 1391.01 511.149 1451.47 528.34" stroke="url(#paint5_linear_2_608)" stroke-miterlimit="10"/>
<path d="M1453.65 525.771C1406.02 510.754 1358.01 533.873 1318.69 566.082C1308.41 574.381 1298.73 583.273 1289.84 592.165C1264.74 617.26 1241.03 644.134 1217.91 671.402C1171.47 726.533 1127.61 784.034 1078.4 837.189C1035.92 883.23 988.298 926.504 934.946 959.898C896.217 984.203 854.325 1003.17 809.273 1014.04C720.55 1035.38 628.073 1023.33 540.734 992.7C502.795 979.461 465.844 962.665 430.473 944.486C379.888 918.6 330.883 889.553 281.088 862.482C219.041 828.89 156.797 798.459 91.9846 775.933C88.6254 774.747 85.0686 773.562 81.7094 772.376C-39.4194 732.066 -178.727 722.383 -289.581 786.603" stroke="url(#paint6_linear_2_608)" stroke-miterlimit="10"/>
<path d="M1455.82 523.202C1408.4 506.999 1359.98 527.747 1319.48 558.178C1309 566.082 1298.93 574.578 1289.64 583.075C1263.55 607.182 1239.05 633.266 1215.14 659.942C1166.93 713.886 1121.68 770.598 1071.29 823.357C1027.82 869.002 979.406 912.277 925.659 945.671C886.534 969.976 844.248 989.143 798.997 1000.01C709.484 1021.75 616.02 1010.48 528.681 978.67C490.544 964.838 453.79 947.45 418.42 928.48C367.834 901.409 318.829 871.769 268.244 845.488C205.209 812.884 141.977 786.603 77.1646 768.029C73.8054 767.041 70.2485 766.053 66.8893 765.065C-54.0419 732.461 -190.386 731.078 -296.892 799.842" stroke="url(#paint7_linear_2_608)" stroke-miterlimit="10"/>
<path d="M1458.19 520.634C1411.16 503.047 1361.96 521.622 1320.46 550.274C1309.6 557.585 1299.32 565.686 1289.64 573.986C1262.57 597.105 1237.08 622.398 1212.38 648.481C1162.38 701.042 1115.55 757.161 1064.18 809.525C1019.72 854.973 970.712 897.852 916.372 931.246C876.852 955.551 834.17 974.718 788.722 985.784C698.419 1007.92 604.164 997.442 516.627 964.641C478.293 950.414 441.737 932.037 406.366 912.474C355.978 884.415 306.776 853.985 255.4 828.692C191.377 797.274 127.157 774.747 62.147 760.52C58.7878 759.73 55.2309 758.939 51.8717 758.346C-69.0595 733.449 -202.242 740.365 -304.401 813.872" stroke="url(#paint8_linear_2_608)" stroke-miterlimit="10"/>
<path d="M1460.36 518.065C1413.53 499.293 1363.74 515.694 1321.25 542.172C1310.19 549.088 1299.52 556.794 1289.44 564.501C1261.58 586.434 1235.1 611.134 1209.61 636.625C1158.04 688.001 1109.82 743.526 1057.26 795.495C1011.81 840.548 962.215 883.23 907.084 916.822C867.169 941.126 824.092 960.294 778.249 971.754C687.156 994.281 592.11 984.598 504.376 950.611C466.239 935.791 429.683 916.624 394.51 896.469C344.122 867.422 294.92 836.201 242.556 811.698C177.545 781.466 112.14 762.891 47.1293 752.814C43.7701 752.221 40.2132 751.826 36.854 751.233C-83.8796 734.042 -214.098 749.454 -312.108 827.309" stroke="url(#paint9_linear_2_608)" stroke-miterlimit="10"/>
<path d="M1462.54 515.496C1416.1 495.341 1365.52 509.568 1322.04 534.268C1310.58 540.789 1299.72 547.902 1289.24 555.411C1260.39 576.357 1233.12 600.266 1206.65 625.164C1153.29 675.552 1103.5 730.287 1049.95 781.861C1003.51 826.518 953.126 869.2 897.6 902.594C857.487 926.899 813.818 946.066 767.777 957.725C675.893 980.646 580.057 971.754 491.927 936.582C453.593 921.366 417.432 901.409 382.259 880.463C331.871 850.428 282.669 818.417 229.515 794.902C163.516 765.658 97.1225 751.233 32.1121 745.107C28.7529 744.712 25.1962 744.514 21.837 744.317C-98.8966 734.832 -225.953 758.544 -319.616 841.141" stroke="url(#paint10_linear_2_608)" stroke-miterlimit="10"/>
<path d="M1464.71 512.927C1418.47 491.586 1367.49 503.442 1322.83 526.364C1311.18 532.49 1299.91 539.208 1289.05 546.322C1259.21 566.082 1230.95 589.398 1203.88 613.703C1148.75 662.906 1097.57 716.85 1042.84 768.029C995.412 812.291 944.431 854.775 888.312 888.17C847.804 912.474 803.937 931.839 757.501 943.498C665.024 966.814 568.003 958.713 479.873 922.354C441.539 906.546 405.378 885.798 370.205 864.062C319.817 833.039 270.615 800.238 216.67 777.514C149.684 749.454 82.1045 738.784 17.0941 737.006C13.7349 736.808 10.1779 736.808 6.81872 736.808C-113.915 735.03 -238.008 767.041 -327.125 854.182" stroke="url(#paint11_linear_2_608)" stroke-miterlimit="10"/>
<path d="M1466.89 510.358C1421.04 487.634 1369.27 497.317 1323.63 518.46C1311.57 523.993 1299.91 530.316 1288.85 537.034C1258.22 555.806 1228.98 578.333 1200.92 602.045C1144.2 649.864 1091.64 703.216 1035.72 753.999C987.31 797.866 935.539 840.153 878.828 873.745C837.925 897.852 793.662 917.414 746.831 929.27C653.564 953.18 555.949 945.869 467.425 908.325C429.09 892.122 392.929 870.386 357.954 848.057C307.764 816.046 258.364 782.454 203.629 760.718C135.654 733.844 67.0871 727.126 2.07672 729.299C-1.28248 729.497 -4.8393 729.497 -8.1985 729.694C-128.734 735.622 -249.863 775.933 -334.831 867.817" stroke="url(#paint12_linear_2_608)" stroke-miterlimit="10"/>
<path d="M1469.06 507.79C1423.41 483.88 1371.05 491.191 1324.42 510.556C1312.16 515.694 1300.11 521.622 1288.85 527.945C1257.23 545.729 1227.2 567.465 1198.35 590.584C1140.05 637.218 1085.91 689.977 1028.81 740.167C979.406 783.837 927.042 825.926 869.738 859.32C828.44 883.427 783.782 902.99 736.753 915.043C642.696 939.15 544.093 932.63 455.569 893.9C417.037 877.104 381.271 854.775 346.296 831.656C296.105 798.459 246.705 764.274 190.982 743.526C122.02 717.838 52.2672 715.072 -12.7432 721.395C-16.1024 721.79 -19.6593 722.186 -23.0185 722.581C-143.554 736.215 -261.522 784.825 -342.142 881.451" stroke="url(#paint13_linear_2_608)" stroke-miterlimit="10"/>
<path d="M1471.23 505.221C1425.98 479.928 1372.83 485.066 1325.21 502.652C1312.56 507.394 1300.31 512.73 1288.65 518.855C1256.05 535.454 1225.22 556.597 1195.38 579.123C1135.31 624.571 1079.79 676.54 1021.49 726.533C971.107 769.61 918.15 811.501 860.253 845.093C818.56 869.2 773.507 888.762 726.281 901.014C631.433 925.516 532.04 919.786 443.12 879.87C404.588 862.482 368.822 839.362 333.847 815.65C283.657 781.466 234.257 746.49 177.743 726.533C107.793 701.833 37.0516 703.018 -28.1564 713.491C-31.5156 714.084 -35.0723 714.677 -38.4315 715.27C-158.77 736.808 -273.773 793.717 -350.047 894.888" stroke="url(#paint14_linear_2_608)" stroke-miterlimit="10"/>
<path d="M1473.41 502.652C1428.35 476.174 1374.61 478.94 1326 494.748C1313.15 498.898 1300.51 504.035 1288.45 509.568C1255.06 525.178 1223.05 545.531 1192.62 567.465C1130.97 611.727 1073.86 663.103 1014.58 712.503C963.203 755.382 909.456 797.076 850.966 830.668C809.075 854.775 763.429 874.535 715.808 886.984C620.169 911.882 519.986 906.942 430.869 865.841C392.337 848.057 356.769 823.95 321.794 799.645C271.603 764.472 222.203 728.706 164.899 709.737C93.9607 686.222 22.0342 691.36 -42.9762 705.982C-46.533 706.773 -49.8921 707.563 -53.2513 708.354C-173.59 737.401 -285.431 802.609 -357.555 908.522" stroke="url(#paint15_linear_2_608)" stroke-miterlimit="10"/>
<path d="M1475.58 500.083C1430.92 472.419 1376.38 472.617 1326.79 486.844C1313.55 490.598 1300.7 495.143 1288.26 500.478C1253.87 515.101 1221.07 534.663 1189.65 556.004C1126.22 599.081 1067.73 649.666 1007.27 698.671C954.904 741.155 900.564 782.849 841.481 816.441C799.195 840.548 753.154 860.308 705.335 872.954C609.104 898.247 507.735 894.295 418.617 852.009C379.888 833.632 344.517 808.734 309.74 783.639C259.549 747.478 210.149 710.922 152.055 692.743C80.1284 670.414 7.21414 679.306 -57.9939 698.078C-61.5507 699.066 -64.91 700.054 -68.2692 701.24C-188.608 737.993 -297.485 811.501 -365.262 921.959" stroke="url(#paint16_linear_2_608)" stroke-miterlimit="10"/>
<path d="M1477.95 497.514C1433.49 468.467 1378.36 466.491 1327.78 478.94C1314.34 482.299 1301.1 486.449 1288.26 491.389C1253.08 505.023 1219.29 523.795 1187.08 544.543C1121.88 586.434 1062 636.23 1000.35 685.037C947 727.126 891.869 768.622 832.392 802.214C789.71 826.321 743.472 846.081 695.257 858.925C598.236 884.613 496.077 881.451 406.564 837.979C367.834 819.207 332.464 793.519 297.686 767.634C247.694 730.485 198.096 693.138 139.211 675.947C66.4943 654.606 -7.60569 667.648 -72.8137 690.57C-76.3705 691.755 -79.7297 692.941 -83.0889 694.324C-203.23 738.784 -308.946 820.59 -372.573 935.791" stroke="url(#paint17_linear_2_608)" stroke-miterlimit="10"/>
<path d="M1480.12 494.946C1436.06 464.713 1380.14 460.366 1328.57 471.036C1314.73 473.802 1301.3 477.557 1288.06 482.102C1251.9 494.55 1217.32 512.73 1184.12 532.885C1117.33 573.59 1055.88 622.793 993.041 671.007C938.701 712.898 882.977 753.999 822.709 787.789C779.633 811.896 732.999 831.854 684.389 844.698C586.577 870.781 483.628 868.41 393.918 823.752C355.188 804.387 320.015 777.909 285.238 751.43C235.245 713.294 185.647 675.157 125.774 658.756C52.0695 638.601 -23.2161 655.594 -88.4241 682.468C-91.9809 683.851 -95.34 685.432 -98.6992 686.815C-218.84 739.179 -321.394 829.087 -380.674 948.833" stroke="url(#paint18_linear_2_608)" stroke-miterlimit="10"/>
<path d="M1482.3 492.377C1438.43 460.761 1381.92 454.24 1329.36 463.132C1315.33 465.503 1301.49 468.862 1287.86 473.012C1250.91 484.473 1215.14 501.862 1181.35 521.226C1112.79 560.746 1049.95 609.158 986.125 656.978C930.797 698.474 874.481 739.574 813.62 773.166C770.345 797.274 723.119 817.231 674.312 830.273C575.512 856.949 471.772 855.368 381.864 809.525C342.937 789.765 307.961 762.298 273.381 735.227C223.389 696.102 173.791 657.175 113.128 641.762C38.435 622.793 -37.8386 643.541 -103.244 674.762C-106.801 676.342 -110.16 678.121 -113.519 679.899C-233.462 739.772 -333.053 838.177 -387.986 962.467" stroke="url(#paint19_linear_2_608)" stroke-miterlimit="10"/>
<path d="M1484.47 489.808C1441 457.006 1383.7 448.114 1330.15 455.228C1315.72 457.204 1301.69 459.97 1287.86 463.922C1249.92 474.395 1213.36 490.796 1178.59 509.766C1108.44 548.1 1044.02 595.919 979.011 643.343C922.695 684.444 865.589 725.347 804.333 759.137C760.663 783.244 713.041 803.202 664.037 816.441C564.446 843.314 459.718 842.524 369.613 795.495C330.685 775.142 295.908 747.083 261.328 719.222C211.335 678.911 161.737 639.391 100.284 624.769C24.603 606.787 -52.8562 631.685 -118.064 666.858C-121.621 668.636 -124.98 670.612 -128.339 672.588C-248.48 740.365 -344.909 847.069 -395.692 976.102" stroke="url(#paint20_linear_2_608)" stroke-miterlimit="10"/>
<path d="M1486.65 487.239C1443.37 453.054 1385.67 441.989 1330.94 447.324C1316.31 448.707 1301.89 451.276 1287.66 454.635C1248.73 463.922 1211.39 479.73 1175.62 498.107C1103.7 535.058 1037.9 582.285 971.7 629.314C914.396 670.019 856.697 710.725 794.65 744.514C750.783 768.622 702.766 788.777 653.366 802.214C553.183 829.482 447.665 829.482 357.361 781.268C318.434 760.52 283.657 731.473 249.077 703.018C199.281 661.72 149.486 621.41 87.2422 607.775C10.5734 590.979 -67.8738 619.631 -133.279 659.151C-136.836 661.325 -140.195 663.301 -143.555 665.474C-263.3 740.958 -356.765 855.961 -403.201 989.538" stroke="url(#paint21_linear_2_608)" stroke-miterlimit="10"/>
<path d="M1488.82 484.67C1445.94 449.3 1387.45 435.665 1331.73 439.42C1276 442.977 1222.65 462.341 1172.86 486.646C1035.33 553.633 919.929 657.57 785.363 730.287C650.797 803.004 480.071 840.943 345.11 767.238C249.472 715.072 181.102 612.32 74.2008 590.781C-3.45603 575.171 -83.0889 607.775 -148.494 651.247C-273.18 734.437 -367.435 860.901 -410.907 1003.17" stroke="url(#paint22_linear_2_608)" stroke-miterlimit="10"/>
<path d="M1164.95 1137.94C1037.11 1194.65 876.061 1172.71 738.137 1121.14C600.212 1069.57 476.712 990.724 343.529 929.468C210.347 868.212 58.3925 824.345 -83.0891 851.416C-201.649 873.942 -298.868 943.695 -377.711 1022.34C-456.553 1101.18 -520.971 1190.5 -601.394 1267.96C-647.632 1312.61 -713.038 1356.09 -781.605 1336.92" stroke="url(#paint23_linear_2_608)" stroke-miterlimit="10"/>
<path d="M895.821 182.737C593.296 219.096 286.818 53.1119 -11.5577 113.577C-161.339 144.008 -292.545 228.778 -419.404 312.165C-456.553 336.668 -508.522 360.577 -542.311 331.333C-565.628 310.98 -565.826 276.005 -563.455 245.574C-555.155 133.535 -540.138 21.8911 -518.599 -88.3698C-495.875 -204.559 -459.517 -328.849 -362.693 -398.602C-268.043 -466.774 -139.998 -465.39 -22.821 -455.313C379.097 -420.338 771.333 -314.819 1158.43 -201.199C1197.16 -189.739 1238.85 -176.302 1261.97 -143.698C1284.11 -112.675 1283.91 -70.5857 1271.06 -35.2153C1219.49 107.057 1034.93 165.941 895.821 182.737Z" fill="url(#paint24_linear_2_608)"/>
<path d="M1204.87 -135.201C1235.3 -98.8425 1255.85 -53.9873 1263.36 -7.35367C1268.1 21.4959 1267.7 51.5311 1260.79 79.9855C1257.43 94.0151 1252.49 107.65 1245.77 120.296C1242.41 126.817 1238.66 132.942 1234.51 138.87C1230.16 145.194 1229.37 153.098 1224.43 159.421C1220.28 164.558 1215.93 164.361 1210.4 166.534C1205.26 168.313 1200.32 172.265 1195.38 174.636C1184.91 179.773 1174.24 184.121 1163.17 188.073C1140.85 195.779 1117.53 200.917 1094.21 203.881C1029.2 212.18 962.61 205.066 898.785 190.444C734.382 152.9 582.033 75.2431 420.198 27.6215C258.364 -20.0001 74.3981 -34.6225 -70.2451 49.1599C-164.303 103.5 -230.499 192.815 -302.623 273.238C-344.316 319.674 -388.381 363.937 -435.015 405.63C-456.355 424.797 -482.439 444.755 -511.288 440.408C-555.748 433.887 -570.766 378.954 -573.927 334.889C-580.843 236.88 -578.472 138.475 -566.814 41.0583C-553.179 -72.5617 -523.935 -190.331 -444.104 -273.126C-368.226 -351.771 -256.582 -387.734 -147.111 -403.344C40.0157 -430.02 230.7 -406.11 418.42 -382.201C590.925 -360.267 764.417 -337.938 931.192 -289.131C1033.55 -259.096 1136.89 -216.217 1204.87 -135.201Z" fill="url(#paint25_linear_2_608)"/>
<path d="M845.829 78.6023C684.785 56.4711 548.638 -50.2329 393.325 -98.0521C199.874 -157.53 -24.797 -116.034 -173.392 17.9391C-218.05 58.2495 -256.187 106.266 -306.574 139.463C-356.962 172.66 -426.122 188.073 -478.486 157.049C-518.402 133.337 -539.94 87.8895 -550.215 43.0343C-590.328 -130.063 -493.307 -312.843 -347.478 -415.991C-201.846 -519.138 -16.8929 -554.706 163.121 -562.412C395.893 -572.292 629.457 -539.886 856.301 -485.348C956.682 -461.043 1058.84 -431.206 1140.65 -368.764C1213.96 -312.646 1290.23 -200.211 1262.96 -103.585C1251.3 -62.0889 1195.19 -22.1737 1160.8 1.5383C1118.52 30.7831 1071.29 52.7167 1021.5 66.3511C964.586 81.9615 904.516 86.7039 845.829 78.6023Z" fill="url(#paint26_linear_2_608)"/>
<path d="M907.677 -41.1433C798.009 -26.7185 687.156 -57.1489 583.811 -97.0641C480.466 -136.782 380.481 -186.577 273.184 -213.451C182.09 -236.175 82.1045 -241.312 -1.67798 -200.607C-93.3644 -156.147 -150.866 -65.2505 -198.092 23.8671C-245.319 112.985 -289.581 207.635 -368.028 271.855C-412.686 308.411 -480.265 332.716 -528.084 299.321C-574.718 266.915 -575.706 200.719 -571.951 144.798C-566.616 65.3631 -561.281 -14.6649 -541.521 -91.7289C-521.761 -168.793 -486.588 -243.683 -429.087 -299.407C-346.49 -379.237 -228.523 -411.051 -114.705 -433.379C232.083 -501.551 596.062 -509.258 938.108 -416.386C991.855 -401.763 1046.19 -384.177 1090.65 -351.178C1135.71 -317.783 1185.31 -256.33 1150.92 -202.385C1115.95 -147.452 1074.85 -102.795 1014.78 -73.5498C981.382 -56.9514 944.826 -46.0833 907.677 -41.1433Z" fill="url(#paint27_linear_2_608)"/>
<path opacity="0.51" d="M-25.3898 189.851C70.2487 112.194 160.947 14.1846 283.854 -4.19215C392.139 -20.3953 502.4 30.5854 611.08 17.1486C792.081 -5.37776 913.803 -196.457 1094.8 -219.576C1120.69 -222.935 1147.37 -222.738 1172.26 -230.444C1197.16 -238.15 1220.87 -256.527 1225.02 -281.82C1231.94 -324.502 1184.12 -354.734 1143.02 -370.345C1015.96 -418.757 881.792 -446.223 747.621 -467.564C491.729 -508.072 232.676 -526.844 -26.1802 -527.437C-141.974 -527.635 -264.683 -522.102 -360.322 -458.87C-481.648 -378.644 -528.282 -227.875 -566.418 -89.1601C-602.184 40.663 -645.854 194.791 -595.07 327.183C-576.101 376.781 -467.026 365.517 -422.171 361.961C-353.999 356.428 -287.407 337.853 -224.966 311.177C-152.842 280.549 -85.8553 238.856 -25.3898 189.851Z" fill="url(#paint28_linear_2_608)"/>
<path d="M1121.88 157.247C1006.87 216.725 864.403 198.743 743.274 150.726C622.146 102.71 514.256 27.2263 397.474 -30.4729C280.693 -88.1721 146.918 -128.087 20.4537 -97.8545C-85.4599 -72.5617 -173.392 -0.832886 -245.318 79.3927C-317.047 159.618 -376.525 250.119 -449.637 329.159C-491.725 374.607 -550.808 419.462 -611.273 402.271" stroke="url(#paint29_linear_2_608)" stroke-miterlimit="10"/>
<path d="M-613.645 404.642C-566.023 419.66 -518.007 396.541 -478.684 364.332C-468.409 356.033 -458.727 347.141 -449.835 338.249C-424.739 313.153 -401.027 286.28 -377.908 259.011C-331.472 203.881 -287.605 146.379 -238.403 93.2247C-195.919 47.1839 -148.297 3.90946 -94.945 -29.4849C-56.2154 -53.7897 -14.3241 -72.7593 30.7287 -83.6273C119.451 -104.968 211.928 -92.9146 299.267 -62.2866C337.206 -49.0474 374.157 -32.2513 409.528 -14.0721C460.113 11.8135 509.118 40.8607 558.913 67.9319C620.96 101.524 683.204 131.954 748.017 154.481C751.376 155.666 754.933 156.852 758.292 158.037C879.421 198.15 1018.73 207.833 1129.58 143.613" stroke="url(#paint30_linear_2_608)" stroke-miterlimit="10"/>
<path d="M-615.818 407.211C-568.394 423.414 -519.982 402.666 -479.474 372.236C-469.002 364.332 -458.924 355.835 -449.637 347.338C-423.554 323.231 -399.051 297.148 -375.142 270.472C-326.927 216.527 -281.677 159.816 -231.289 107.057C-187.817 61.4111 -139.405 18.1367 -85.6577 -15.2577C-46.5329 -39.5625 -4.24653 -58.7297 41.0039 -69.5977C130.517 -91.3337 223.981 -80.0705 311.321 -48.2569C349.457 -34.4249 386.211 -17.0361 421.582 1.93348C472.167 29.0047 521.172 58.6447 571.758 84.9255C634.792 117.529 698.024 143.81 762.837 162.385C766.196 163.373 769.753 164.361 773.112 165.349C894.241 197.557 1030.58 198.941 1137.09 130.176" stroke="url(#paint31_linear_2_608)" stroke-miterlimit="10"/>
<path d="M-617.992 409.78C-570.963 427.366 -521.761 408.792 -480.265 380.14C-469.397 372.829 -459.122 364.727 -449.439 356.428C-422.368 333.309 -396.878 308.016 -372.178 281.933C-322.382 229.371 -275.354 173.253 -223.978 120.889C-179.518 75.6383 -130.513 32.5614 -76.1728 -0.832959C-36.6528 -25.1378 6.02884 -44.305 51.4768 -55.3706C141.78 -77.5018 236.035 -67.0289 323.572 -34.2273C361.709 -20.0001 398.265 -1.62336 433.635 17.939C484.023 45.9982 533.226 76.4286 584.602 101.721C648.624 133.14 712.844 155.666 777.854 169.893C781.214 170.684 784.77 171.474 788.13 172.067C909.258 196.965 1042.64 190.049 1144.6 116.541" stroke="url(#paint32_linear_2_608)" stroke-miterlimit="10"/>
<path d="M-620.166 412.349C-573.335 431.121 -523.539 414.72 -481.055 388.241C-469.99 381.325 -459.319 373.619 -449.242 365.913C-421.38 343.979 -394.902 319.279 -369.411 293.789C-317.838 242.413 -269.623 186.887 -217.062 134.918C-171.614 89.8655 -122.016 47.1839 -66.8858 13.5919C-26.9706 -10.7128 16.1062 -29.8801 61.9494 -41.3409C153.043 -63.8673 248.089 -54.1849 335.823 -20.1977C373.96 -5.37766 410.516 13.7895 445.689 33.9447C496.077 62.9919 545.279 94.2127 597.643 118.715C662.653 148.948 728.059 167.522 793.069 177.6C796.429 178.193 799.985 178.588 803.345 179.181C924.078 196.372 1054.3 180.959 1152.31 103.105" stroke="url(#paint33_linear_2_608)" stroke-miterlimit="10"/>
<path d="M-622.339 414.917C-575.903 435.073 -525.318 420.845 -481.846 396.145C-470.385 389.625 -459.517 382.511 -449.044 375.002C-420.194 354.057 -392.925 330.147 -366.447 305.249C-313.293 255.059 -263.498 200.324 -209.75 148.75C-163.314 104.093 -112.926 61.4111 -57.4008 28.0167C-17.288 3.71191 26.3816 -15.4553 72.4224 -27.1137C164.306 -50.0353 260.142 -41.1433 348.272 -5.97051C386.606 9.24469 422.767 29.2023 457.94 50.1479C508.328 80.1831 557.53 112.194 610.685 135.709C676.683 164.954 743.077 179.378 808.087 185.504C811.446 185.899 815.003 186.097 818.362 186.294C939.096 195.779 1066.15 172.067 1159.82 89.4703" stroke="url(#paint34_linear_2_608)" stroke-miterlimit="10"/>
<path d="M-624.513 417.486C-578.275 438.827 -527.294 426.971 -482.636 404.049C-470.978 397.924 -459.714 391.206 -448.847 384.092C-419.009 364.332 -390.752 341.015 -363.681 316.71C-308.748 267.706 -257.57 213.563 -202.637 162.385C-155.213 118.122 -104.232 75.6383 -48.1138 42.2439C-7.60576 17.9391 36.2615 -1.42567 82.6975 -13.0841C175.174 -36.4009 272.196 -28.2993 360.325 8.05909C398.66 23.8671 434.821 44.6151 469.993 66.3511C520.381 97.3743 569.584 130.176 623.529 152.9C690.515 180.959 758.094 191.63 823.105 193.408C826.464 193.606 830.021 193.605 833.38 193.605C954.113 195.384 1078.21 163.373 1167.52 76.0335" stroke="url(#paint35_linear_2_608)" stroke-miterlimit="10"/>
<path d="M-626.884 420.055C-581.041 442.779 -529.27 433.097 -483.624 411.953C-471.571 406.421 -459.912 400.097 -448.847 393.379C-418.219 374.607 -388.974 352.081 -360.915 328.369C-304.203 280.55 -251.642 227.198 -195.721 176.414C-147.309 132.547 -95.5378 90.2607 -38.8266 56.6687C2.07661 32.5615 46.339 12.9991 93.1702 1.14311C186.437 -22.5689 284.249 -15.2577 372.577 22.2863C410.911 38.4895 447.072 60.2255 482.047 82.5543C532.237 114.566 581.637 148.157 636.373 169.893C704.347 196.767 772.914 203.486 837.925 201.312C841.284 201.114 844.841 201.114 848.2 200.917C968.933 194.791 1090.06 154.481 1175.03 62.5967" stroke="url(#paint36_linear_2_608)" stroke-miterlimit="10"/>
<path d="M-629.058 422.624C-583.412 446.533 -531.048 439.222 -484.415 419.857C-472.163 414.72 -460.11 408.792 -448.847 402.469C-417.231 384.685 -387.195 362.949 -358.346 339.829C-300.054 293.196 -245.911 240.437 -188.805 190.246C-139.405 146.577 -87.041 104.488 -29.737 71.0935C11.759 46.7887 56.6142 27.2263 103.643 15.1727C197.701 -8.93449 296.303 -2.41367 384.828 36.3159C423.36 53.1119 459.125 75.4407 494.101 98.5599C544.291 131.757 593.691 165.941 649.414 186.689C718.377 212.377 788.129 215.144 853.14 208.821C856.499 208.425 860.056 208.03 863.415 207.635C983.951 194.198 1101.92 145.589 1182.54 48.9623" stroke="url(#paint37_linear_2_608)" stroke-miterlimit="10"/>
<path d="M-631.231 425.193C-585.981 450.486 -532.827 445.348 -485.205 427.761C-472.559 423.019 -460.307 417.684 -448.649 411.558C-416.045 394.96 -385.219 373.817 -355.382 351.29C-295.311 305.842 -239.786 253.874 -181.494 203.881C-131.106 160.606 -78.149 118.715 -20.2522 85.1231C21.4414 61.0159 66.4943 41.4535 113.721 29.2023C208.569 4.6999 307.961 10.4303 396.881 50.3455C435.413 67.7343 471.179 90.8535 506.154 114.565C556.345 148.75 605.745 183.725 662.258 203.683C732.209 228.383 802.949 227.198 868.157 216.725C871.517 216.132 875.073 215.539 878.433 214.946C998.969 193.606 1113.77 136.697 1190.25 35.5255" stroke="url(#paint38_linear_2_608)" stroke-miterlimit="10"/>
<path d="M-633.405 427.761C-588.352 454.24 -534.605 451.473 -485.995 435.665C-473.151 431.516 -460.505 426.378 -448.451 420.845C-415.057 405.235 -383.046 384.882 -352.615 362.949C-290.964 318.686 -233.858 267.31 -174.578 217.91C-123.202 175.031 -69.4547 133.337 -10.9651 99.7455C30.9261 75.6383 76.5718 55.8783 124.193 43.4295C219.832 18.5319 320.015 23.4719 409.133 64.5727C447.665 82.3567 483.233 106.464 518.208 130.769C568.398 165.941 617.798 201.707 675.102 220.677C746.041 244.191 817.967 239.053 882.977 224.431C886.534 223.641 889.893 222.85 893.253 222.06C1013.79 193.013 1125.63 127.805 1197.75 21.8911" stroke="url(#paint39_linear_2_608)" stroke-miterlimit="10"/>
<path d="M-635.579 430.33C-590.921 457.994 -536.383 457.797 -486.786 443.569C-473.547 439.815 -460.703 435.27 -448.254 429.935C-413.871 415.313 -381.07 395.75 -349.651 374.409C-286.222 331.333 -227.732 280.747 -167.267 231.742C-114.903 189.258 -60.5626 147.565 -1.48023 113.973C40.8062 89.8655 86.847 70.1054 134.666 57.459C230.897 32.1662 332.266 36.1183 421.384 78.4047C460.113 96.7815 495.484 121.679 530.261 146.774C580.452 182.935 629.852 219.491 687.946 237.67C759.873 259.999 832.787 251.107 897.995 232.335C901.552 231.347 904.911 230.359 908.27 229.173C1028.81 192.42 1137.49 118.913 1205.46 8.45426" stroke="url(#paint40_linear_2_608)" stroke-miterlimit="10"/>
<path d="M-637.752 432.899C-593.292 461.946 -538.162 463.922 -487.576 451.474C-474.139 448.114 -460.9 443.965 -448.056 439.025C-412.883 425.39 -379.094 406.618 -346.885 385.87C-281.677 343.979 -221.804 294.184 -160.153 245.377C-106.801 203.288 -51.6705 161.792 7.80708 128.2C50.4887 104.093 96.7271 84.3327 144.942 71.4887C241.963 45.8007 344.122 48.9623 433.635 92.4343C472.365 111.206 507.735 136.894 542.513 162.78C592.505 199.929 642.103 237.275 700.988 254.466C773.705 275.807 847.805 262.766 913.013 239.844C916.569 238.658 919.929 237.473 923.288 236.089C1043.63 191.827 1149.34 110.021 1212.97 -4.98257" stroke="url(#paint41_linear_2_608)" stroke-miterlimit="10"/>
<path d="M-639.926 435.468C-595.861 465.701 -539.94 470.048 -488.367 459.377C-474.535 456.611 -461.098 452.857 -447.859 448.312C-411.698 435.863 -377.118 417.684 -343.921 397.529C-277.132 356.823 -215.679 307.621 -152.842 259.406C-98.5018 217.515 -42.7785 176.414 17.4895 142.625C60.5663 118.517 107.2 98.5599 155.809 85.7159C253.621 59.6327 356.571 62.0039 446.281 106.661C485.011 126.026 520.184 152.505 554.961 178.983C604.954 217.12 654.552 255.257 714.425 271.657C788.129 291.813 863.415 274.819 928.623 247.945C932.18 246.562 935.539 244.981 938.898 243.598C1058.64 191.234 1161.2 101.129 1220.48 -18.6169" stroke="url(#paint42_linear_2_608)" stroke-miterlimit="10"/>
<path d="M-642.099 438.037C-598.232 469.653 -541.719 476.174 -489.157 467.282C-475.127 464.91 -461.295 461.551 -447.661 457.402C-410.71 445.941 -374.944 428.552 -341.155 409.187C-272.587 369.667 -209.751 321.255 -145.926 273.436C-90.5978 231.94 -34.2819 190.839 26.5789 157.247C69.8533 133.14 117.08 113.182 165.887 100.141C264.489 73.6624 368.229 75.2432 458.137 121.086C497.065 140.846 532.04 168.313 566.62 195.384C616.613 234.509 666.21 273.436 726.873 288.849C801.566 307.818 877.84 287.07 943.245 255.85C946.802 254.269 950.161 252.49 953.521 250.712C1073.66 190.642 1173.05 92.2368 1228.18 -32.0536" stroke="url(#paint43_linear_2_608)" stroke-miterlimit="10"/>
<path d="M-644.273 440.605C-600.801 473.407 -543.497 482.299 -489.947 475.186C-475.522 473.21 -461.493 470.443 -447.661 466.491C-409.722 456.018 -373.166 439.618 -338.388 420.648C-268.24 382.314 -203.823 334.494 -138.812 287.07C-82.4962 245.97 -25.3897 205.066 35.8663 171.277C79.5359 147.17 127.157 127.212 176.162 113.973C275.555 87.0991 380.283 87.8895 470.191 134.918C509.118 155.271 543.896 183.33 578.476 211.192C628.469 251.502 678.066 291.022 739.52 305.645C815.201 323.626 892.66 298.729 957.868 263.556C961.425 261.778 964.784 259.801 968.143 257.825C1088.48 190.049 1184.91 83.3447 1235.69 -45.6881" stroke="url(#paint44_linear_2_608)" stroke-miterlimit="10"/>
<path d="M-646.644 443.174C-603.37 477.359 -545.67 488.425 -490.935 483.089C-476.313 481.706 -461.888 479.137 -447.661 475.778C-408.734 466.491 -371.387 450.683 -335.622 432.306C-263.695 395.355 -197.894 348.129 -131.698 301.1C-74.3943 260.394 -16.6952 219.689 45.3512 185.899C89.416 161.989 137.433 141.834 186.833 128.2C287.016 100.931 392.534 100.931 482.838 149.145C521.765 169.893 556.542 198.941 591.122 227.395C640.918 268.693 690.713 309.004 752.957 322.638C829.626 339.434 908.073 310.782 973.478 271.262C977.035 269.089 980.394 267.113 983.754 264.939C1103.5 189.456 1196.77 74.4527 1243.4 -59.1249" stroke="url(#paint45_linear_2_608)" stroke-miterlimit="10"/>
<path d="M-648.818 445.743C-605.939 481.113 -547.449 494.748 -491.726 490.994C-436.003 487.437 -382.651 468.072 -332.855 443.767C-195.326 376.781 -79.9274 272.843 54.6382 200.126C189.204 127.607 359.93 89.4703 494.891 163.175C590.529 215.341 658.899 318.094 765.801 339.632C843.457 355.242 923.09 322.638 988.496 279.166C1113.38 195.977 1207.63 69.7103 1251.11 -72.5617" stroke="url(#paint46_linear_2_608)" stroke-miterlimit="10"/>
<path d="M-324.754 -207.523C-196.907 -264.234 -35.8626 -242.3 102.062 -190.727C239.789 -138.955 363.487 -60.3105 496.669 0.9455C629.852 62.2015 781.806 106.069 923.288 78.9975C1041.85 56.4711 1139.07 -13.2817 1217.91 -91.9265C1296.55 -170.571 1361.17 -260.084 1441.4 -337.543C1487.63 -382.201 1553.04 -425.673 1621.61 -406.506" stroke="url(#paint47_linear_2_608)" stroke-miterlimit="10"/>
<path d="M1623.98 -409.272C1569.84 -425.673 1516.48 -403.739 1472.81 -372.519C1461.55 -364.417 1450.88 -355.723 1441 -347.028C1413.34 -322.328 1387.45 -296.047 1362.16 -269.174C1311.37 -215.031 1263.36 -158.32 1209.41 -106.154C1162.78 -61.101 1110.22 -18.6169 1051.14 13.3943C1008.26 36.9087 961.622 54.8903 911.234 64.5727C811.841 83.7399 707.311 68.9199 608.116 35.9207C565.039 21.4959 522.95 3.71188 482.442 -15.4553C424.743 -42.9217 368.822 -73.5497 311.913 -102.004C241.173 -137.572 170.234 -169.781 96.5295 -194.283C92.5775 -195.667 88.6255 -196.852 84.6735 -198.038C-52.8561 -241.905 -210.146 -255.342 -333.251 -193.888" stroke="url(#paint48_linear_2_608)" stroke-miterlimit="10"/>
<path d="M1626.35 -411.643C1572.4 -429.23 1518.46 -409.667 1473.6 -380.225C1461.95 -372.716 1450.88 -364.417 1440.6 -355.92C1411.95 -332.406 1384.88 -306.915 1358.6 -280.635C1305.84 -227.678 1256.24 -171.955 1201.11 -120.183C1153.29 -75.5257 1100.14 -33.2393 1040.27 -1.22809C996.795 22.0887 949.766 40.2679 898.983 49.9503C798.602 69.5127 693.084 55.4831 593.889 21.2983C550.614 6.4783 508.723 -12.2937 468.413 -32.2513C410.713 -60.7057 354.793 -92.1241 296.896 -119.788C225.167 -154.17 153.043 -182.427 79.3382 -202.78C75.3862 -203.768 71.4342 -204.954 67.6798 -205.942C-69.4546 -242.103 -223.187 -247.043 -341.154 -180.847" stroke="url(#paint49_linear_2_608)" stroke-miterlimit="10"/>
<path d="M1628.72 -414.212C1575.17 -433.182 1520.24 -415.793 1474.2 -388.326C1462.14 -381.213 1450.68 -373.309 1440.01 -365.405C1410.17 -342.878 1382.12 -318.178 1355.04 -292.49C1300.31 -240.917 1249.13 -185.787 1192.62 -134.411C1143.81 -89.9505 1089.67 -48.0593 1029.4 -16.0481C985.532 7.26872 937.91 25.4479 886.929 35.3279C785.758 55.2855 679.252 42.0463 579.661 6.47831C536.387 -8.93449 494.496 -28.2993 454.185 -49.0473C396.486 -78.4897 340.368 -110.698 281.681 -137.572C208.766 -170.966 135.654 -195.271 62.147 -211.474C58.195 -212.265 54.2432 -213.253 50.4888 -214.043C-86.448 -242.498 -236.426 -238.941 -349.454 -168.003" stroke="url(#paint50_linear_2_608)" stroke-miterlimit="10"/>
<path d="M1631.29 -416.781C1578.13 -436.936 1522.41 -421.919 1475.18 -396.231C1462.93 -389.512 1451.08 -382.201 1440.01 -374.495C1409.19 -353.154 1380.14 -329.046 1351.88 -304.149C1295.17 -253.761 1242.21 -199.421 1184.51 -148.44C1134.52 -104.375 1079.79 -62.6817 1018.73 -30.6705C974.466 -7.35373 926.449 10.8255 875.073 21.1007C773.112 41.4535 665.617 29.0047 565.829 -7.74892C522.357 -23.7545 480.861 -43.9097 440.551 -65.2505C383.049 -95.8785 326.733 -128.68 267.058 -154.566C193.156 -186.775 118.858 -207.127 45.351 -219.181C41.399 -219.774 37.6445 -220.366 33.6925 -220.959C-102.849 -241.51 -249.271 -229.654 -357.358 -153.775" stroke="url(#paint51_linear_2_608)" stroke-miterlimit="10"/>
<path d="M1633.66 -419.35C1580.7 -440.888 1524.19 -428.044 1475.78 -404.135C1463.13 -397.811 1450.88 -391.093 1439.42 -383.782C1407.61 -363.429 1377.37 -340.31 1348.33 -315.807C1289.64 -266.605 1235.1 -213.055 1176.02 -162.667C1124.84 -118.998 1069.31 -77.5017 1007.66 -45.2929C963.005 -21.9761 914.593 -3.7969 862.822 6.6759C760.07 27.2263 651.588 15.5679 551.602 -22.1737C508.13 -38.5745 466.634 -59.7177 426.324 -81.6513C368.822 -113.267 312.506 -146.859 251.843 -171.955C176.755 -202.978 101.469 -219.576 27.9622 -227.48C24.0102 -227.875 20.2557 -228.271 16.3037 -228.666C-120.04 -241.51 -262.708 -221.157 -365.855 -140.536" stroke="url(#paint52_linear_2_608)" stroke-miterlimit="10"/>
<path d="M1636.03 -421.721C1583.47 -444.445 1526.17 -433.972 1476.57 -412.039C1463.53 -406.308 1451.08 -399.787 1439.02 -392.871C1406.02 -373.704 1374.8 -351.178 1344.77 -327.466C1284.3 -279.647 1227.99 -226.69 1167.52 -176.697C1115.16 -133.423 1059.04 -92.1242 996.597 -59.9154C951.545 -36.5986 902.54 -18.4194 850.571 -7.74898C746.831 13.1966 637.558 2.32862 537.177 -36.5986C493.508 -53.5922 452.209 -75.3281 412.097 -98.0521C354.595 -130.656 298.279 -165.039 236.628 -189.146C160.552 -219.181 84.0806 -231.63 10.771 -235.384C6.81905 -235.582 3.06472 -235.779 -0.887281 -235.977C-136.836 -241.115 -275.749 -212.265 -374.154 -126.902" stroke="url(#paint53_linear_2_608)" stroke-miterlimit="10"/>
<path d="M1660.14 -447.014C1610.54 -482.582 1544.94 -495.426 1483.68 -491.474C1467.28 -490.486 1451.08 -488.312 1435.07 -485.348C1391.6 -477.049 1349.71 -462.031 1310.19 -444.643C1230.16 -409.272 1157.25 -363.627 1083.94 -318.179C1020.31 -278.659 956.485 -239.336 887.72 -207.127C838.715 -184.206 785.165 -165.236 729.837 -152.985C617.798 -128.285 498.843 -131.249 395.894 -182.032C351.434 -203.966 311.518 -234.199 271.801 -263.839C214.497 -306.718 157.39 -348.609 86.8471 -364.022C-0.0968995 -382.991 -87.6337 -356.315 -160.153 -318.376C-163.907 -316.4 -167.859 -314.227 -171.614 -312.251C-304.598 -239.731 -406.758 -126.506 -455.367 6.67596" stroke="url(#paint54_linear_2_608)" stroke-opacity="0.7" stroke-miterlimit="10"/>
<path d="M1662.51 -449.583C1613.11 -486.336 1546.91 -501.551 1484.27 -499.378C1421.64 -497.204 1361.96 -479.222 1306.43 -456.103C1153.29 -392.674 1026.04 -291.107 876.457 -221.75C726.873 -152.392 535.597 -118.8 381.469 -196.457C272.393 -251.39 192.563 -356.711 71.4342 -381.411C-16.4978 -399.195 -105.22 -368.567 -177.739 -326.478C-316.257 -246.252 -419.009 -121.764 -464.062 20.1127" stroke="url(#paint55_linear_2_608)" stroke-opacity="0.7" stroke-miterlimit="10"/>
</g>
</g>
</g>
<defs>
<linearGradient id="paint0_linear_2_608" x1="475.17" y1="808.754" x2="398.523" y2="507.958" gradientUnits="userSpaceOnUse">
<stop stop-color="white"/>
<stop offset="1" stop-color="#E8E8E8"/>
</linearGradient>
<linearGradient id="paint1_linear_2_608" x1="1091.72" y1="1382.79" x2="-41.3991" y2="223.673" gradientUnits="userSpaceOnUse">
<stop stop-color="white"/>
<stop offset="1" stop-color="#E8E8E8"/>
</linearGradient>
<linearGradient id="paint2_linear_2_608" x1="436.606" y1="878.996" x2="309.599" y2="544.384" gradientUnits="userSpaceOnUse">
<stop stop-color="white"/>
<stop offset="1" stop-color="#E8E8E8"/>
</linearGradient>
<linearGradient id="paint3_linear_2_608" x1="1299.78" y1="694.721" x2="6.94538" y2="1429.9" gradientUnits="userSpaceOnUse">
<stop stop-color="white"/>
<stop offset="1" stop-color="#E8E8E8"/>
</linearGradient>
<linearGradient id="paint4_linear_2_608" x1="1259.77" y1="824.649" x2="382.041" y2="1303.13" gradientUnits="userSpaceOnUse">
<stop stop-color="white"/>
<stop offset="1" stop-color="#E8E8E8"/>
</linearGradient>
<linearGradient id="paint5_linear_2_608" x1="1326.93" y1="307.918" x2="-88.6954" y2="1112.93" gradientUnits="userSpaceOnUse">
<stop stop-color="white"/>
<stop offset="1" stop-color="#E8E8E8"/>
</linearGradient>
<linearGradient id="paint6_linear_2_608" x1="1327.44" y1="302.338" x2="-102.485" y2="1115.48" gradientUnits="userSpaceOnUse">
<stop stop-color="white"/>
<stop offset="1" stop-color="#E8E8E8"/>
</linearGradient>
<linearGradient id="paint7_linear_2_608" x1="1327.82" y1="296.548" x2="-116.465" y2="1117.86" gradientUnits="userSpaceOnUse">
<stop stop-color="white"/>
<stop offset="1" stop-color="#E8E8E8"/>
</linearGradient>
<linearGradient id="paint8_linear_2_608" x1="1328" y1="290.397" x2="-130.65" y2="1119.87" gradientUnits="userSpaceOnUse">
<stop stop-color="white"/>
<stop offset="1" stop-color="#E8E8E8"/>
</linearGradient>
<linearGradient id="paint9_linear_2_608" x1="1327.95" y1="283.832" x2="-145.071" y2="1121.48" gradientUnits="userSpaceOnUse">
<stop stop-color="white"/>
<stop offset="1" stop-color="#E8E8E8"/>
</linearGradient>
<linearGradient id="paint10_linear_2_608" x1="1327.63" y1="276.798" x2="-159.759" y2="1122.61" gradientUnits="userSpaceOnUse">
<stop stop-color="white"/>
<stop offset="1" stop-color="#E8E8E8"/>
</linearGradient>
<linearGradient id="paint11_linear_2_608" x1="1327" y1="269.228" x2="-174.752" y2="1123.21" gradientUnits="userSpaceOnUse">
<stop stop-color="white"/>
<stop offset="1" stop-color="#E8E8E8"/>
</linearGradient>
<linearGradient id="paint12_linear_2_608" x1="1326.02" y1="261.053" x2="-190.087" y2="1123.2" gradientUnits="userSpaceOnUse">
<stop stop-color="white"/>
<stop offset="1" stop-color="#E8E8E8"/>
</linearGradient>
<linearGradient id="paint13_linear_2_608" x1="1324.66" y1="252.199" x2="-205.808" y2="1122.52" gradientUnits="userSpaceOnUse">
<stop stop-color="white"/>
<stop offset="1" stop-color="#E8E8E8"/>
</linearGradient>
<linearGradient id="paint14_linear_2_608" x1="1324.39" y1="245.257" x2="-220.442" y2="1123.74" gradientUnits="userSpaceOnUse">
<stop stop-color="white"/>
<stop offset="1" stop-color="#E8E8E8"/>
</linearGradient>
<linearGradient id="paint15_linear_2_608" x1="1326.08" y1="241.776" x2="-233.105" y2="1128.42" gradientUnits="userSpaceOnUse">
<stop stop-color="white"/>
<stop offset="1" stop-color="#E8E8E8"/>
</linearGradient>
<linearGradient id="paint16_linear_2_608" x1="1327.29" y1="237.437" x2="-246.255" y2="1132.25" gradientUnits="userSpaceOnUse">
<stop stop-color="white"/>
<stop offset="1" stop-color="#E8E8E8"/>
</linearGradient>
<linearGradient id="paint17_linear_2_608" x1="1328" y1="232.224" x2="-259.9" y2="1135.2" gradientUnits="userSpaceOnUse">
<stop stop-color="white"/>
<stop offset="1" stop-color="#E8E8E8"/>
</linearGradient>
<linearGradient id="paint18_linear_2_608" x1="1328.21" y1="226.151" x2="-274.033" y2="1137.28" gradientUnits="userSpaceOnUse">
<stop stop-color="white"/>
<stop offset="1" stop-color="#E8E8E8"/>
</linearGradient>
<linearGradient id="paint19_linear_2_608" x1="1327.97" y1="219.266" x2="-288.626" y2="1138.56" gradientUnits="userSpaceOnUse">
<stop stop-color="white"/>
<stop offset="1" stop-color="#E8E8E8"/>
</linearGradient>
<linearGradient id="paint20_linear_2_608" x1="1327.3" y1="211.638" x2="-303.639" y2="1139.09" gradientUnits="userSpaceOnUse">
<stop stop-color="white"/>
<stop offset="1" stop-color="#E8E8E8"/>
</linearGradient>
<linearGradient id="paint21_linear_2_608" x1="1326.26" y1="203.367" x2="-319.016" y2="1138.97" gradientUnits="userSpaceOnUse">
<stop stop-color="white"/>
<stop offset="1" stop-color="#E8E8E8"/>
</linearGradient>
<linearGradient id="paint22_linear_2_608" x1="1324.96" y1="194.621" x2="-334.662" y2="1138.38" gradientUnits="userSpaceOnUse">
<stop stop-color="white"/>
<stop offset="1" stop-color="#E8E8E8"/>
</linearGradient>
<linearGradient id="paint23_linear_2_608" x1="-612.145" y1="1636.27" x2="944.905" y2="750.838" gradientUnits="userSpaceOnUse">
<stop stop-color="white" stop-opacity="0"/>
<stop offset="1" stop-color="#E6E6E6"/>
</linearGradient>
<linearGradient id="paint24_linear_2_608" x1="364.923" y1="121.659" x2="441.57" y2="422.455" gradientUnits="userSpaceOnUse">
<stop stop-color="white"/>
<stop offset="1" stop-color="#E8E8E8"/>
</linearGradient>
<linearGradient id="paint25_linear_2_608" x1="-251.624" y1="-452.38" x2="881.492" y2="706.74" gradientUnits="userSpaceOnUse">
<stop stop-color="white"/>
<stop offset="1" stop-color="#E8E8E8"/>
</linearGradient>
<linearGradient id="paint26_linear_2_608" x1="403.487" y1="51.4164" x2="530.494" y2="386.028" gradientUnits="userSpaceOnUse">
<stop stop-color="white"/>
<stop offset="1" stop-color="#E8E8E8"/>
</linearGradient>
<linearGradient id="paint27_linear_2_608" x1="-459.688" y1="235.691" x2="833.148" y2="-499.492" gradientUnits="userSpaceOnUse">
<stop stop-color="white"/>
<stop offset="1" stop-color="#E8E8E8"/>
</linearGradient>
<linearGradient id="paint28_linear_2_608" x1="-419.677" y1="105.764" x2="458.052" y2="-372.717" gradientUnits="userSpaceOnUse">
<stop stop-color="white"/>
<stop offset="1" stop-color="#E8E8E8"/>
</linearGradient>
<linearGradient id="paint29_linear_2_608" x1="-486.837" y1="622.495" x2="928.789" y2="-182.514" gradientUnits="userSpaceOnUse">
<stop stop-color="white"/>
<stop offset="1" stop-color="#E8E8E8"/>
</linearGradient>
<linearGradient id="paint30_linear_2_608" x1="-487.344" y1="628.074" x2="942.579" y2="-185.065" gradientUnits="userSpaceOnUse">
<stop stop-color="white"/>
<stop offset="1" stop-color="#E8E8E8"/>
</linearGradient>
<linearGradient id="paint31_linear_2_608" x1="-487.731" y1="633.864" x2="956.558" y2="-187.444" gradientUnits="userSpaceOnUse">
<stop stop-color="white"/>
<stop offset="1" stop-color="#E8E8E8"/>
</linearGradient>
<linearGradient id="paint32_linear_2_608" x1="-487.911" y1="640.016" x2="970.744" y2="-189.461" gradientUnits="userSpaceOnUse">
<stop stop-color="white"/>
<stop offset="1" stop-color="#E8E8E8"/>
</linearGradient>
<linearGradient id="paint33_linear_2_608" x1="-487.856" y1="646.58" x2="985.164" y2="-191.067" gradientUnits="userSpaceOnUse">
<stop stop-color="white"/>
<stop offset="1" stop-color="#E8E8E8"/>
</linearGradient>
<linearGradient id="paint34_linear_2_608" x1="-487.532" y1="653.615" x2="999.852" y2="-192.2" gradientUnits="userSpaceOnUse">
<stop stop-color="white"/>
<stop offset="1" stop-color="#E8E8E8"/>
</linearGradient>
<linearGradient id="paint35_linear_2_608" x1="-486.903" y1="661.185" x2="1014.84" y2="-192.798" gradientUnits="userSpaceOnUse">
<stop stop-color="white"/>
<stop offset="1" stop-color="#E8E8E8"/>
</linearGradient>
<linearGradient id="paint36_linear_2_608" x1="-485.93" y1="669.36" x2="1030.18" y2="-192.791" gradientUnits="userSpaceOnUse">
<stop stop-color="white"/>
<stop offset="1" stop-color="#E8E8E8"/>
</linearGradient>
<linearGradient id="paint37_linear_2_608" x1="-484.57" y1="678.213" x2="1045.9" y2="-192.104" gradientUnits="userSpaceOnUse">
<stop stop-color="white"/>
<stop offset="1" stop-color="#E8E8E8"/>
</linearGradient>
<linearGradient id="paint38_linear_2_608" x1="-484.296" y1="685.156" x2="1060.53" y2="-193.327" gradientUnits="userSpaceOnUse">
<stop stop-color="white"/>
<stop offset="1" stop-color="#E8E8E8"/>
</linearGradient>
<linearGradient id="paint39_linear_2_608" x1="-485.99" y1="688.636" x2="1073.2" y2="-198.011" gradientUnits="userSpaceOnUse">
<stop stop-color="white"/>
<stop offset="1" stop-color="#E8E8E8"/>
</linearGradient>
<linearGradient id="paint40_linear_2_608" x1="-487.195" y1="692.975" x2="1086.35" y2="-201.835" gradientUnits="userSpaceOnUse">
<stop stop-color="white"/>
<stop offset="1" stop-color="#E8E8E8"/>
</linearGradient>
<linearGradient id="paint41_linear_2_608" x1="-487.902" y1="698.189" x2="1099.99" y2="-204.783" gradientUnits="userSpaceOnUse">
<stop stop-color="white"/>
<stop offset="1" stop-color="#E8E8E8"/>
</linearGradient>
<linearGradient id="paint42_linear_2_608" x1="-488.119" y1="704.261" x2="1114.13" y2="-206.871" gradientUnits="userSpaceOnUse">
<stop stop-color="white"/>
<stop offset="1" stop-color="#E8E8E8"/>
</linearGradient>
<linearGradient id="paint43_linear_2_608" x1="-487.874" y1="711.147" x2="1128.72" y2="-208.144" gradientUnits="userSpaceOnUse">
<stop stop-color="white"/>
<stop offset="1" stop-color="#E8E8E8"/>
</linearGradient>
<linearGradient id="paint44_linear_2_608" x1="-487.205" y1="718.774" x2="1143.73" y2="-208.674" gradientUnits="userSpaceOnUse">
<stop stop-color="white"/>
<stop offset="1" stop-color="#E8E8E8"/>
</linearGradient>
<linearGradient id="paint45_linear_2_608" x1="-486.17" y1="727.046" x2="1159.11" y2="-208.558" gradientUnits="userSpaceOnUse">
<stop stop-color="white"/>
<stop offset="1" stop-color="#E8E8E8"/>
</linearGradient>
<linearGradient id="paint46_linear_2_608" x1="-484.865" y1="735.792" x2="1174.75" y2="-207.967" gradientUnits="userSpaceOnUse">
<stop stop-color="white"/>
<stop offset="1" stop-color="#E8E8E8"/>
</linearGradient>
<linearGradient id="paint47_linear_2_608" x1="1452.24" y1="-705.857" x2="-104.812" y2="179.575" gradientUnits="userSpaceOnUse">
<stop stop-color="white" stop-opacity="0"/>
<stop offset="1" stop-color="#E6E6E6"/>
</linearGradient>
<linearGradient id="paint48_linear_2_608" x1="1452.55" y1="-712.095" x2="-119.314" y2="181.762" gradientUnits="userSpaceOnUse">
<stop stop-color="white" stop-opacity="0"/>
<stop offset="1" stop-color="#E6E6E6"/>
</linearGradient>
<linearGradient id="paint49_linear_2_608" x1="1452.87" y1="-718.325" x2="-133.811" y2="183.956" gradientUnits="userSpaceOnUse">
<stop stop-color="white" stop-opacity="0"/>
<stop offset="1" stop-color="#E6E6E6"/>
</linearGradient>
<linearGradient id="paint50_linear_2_608" x1="1453.11" y1="-724.692" x2="-148.46" y2="186.053" gradientUnits="userSpaceOnUse">
<stop stop-color="white" stop-opacity="0"/>
<stop offset="1" stop-color="#E6E6E6"/>
</linearGradient>
<linearGradient id="paint51_linear_2_608" x1="1453.12" y1="-731.453" x2="-163.343" y2="187.765" gradientUnits="userSpaceOnUse">
<stop stop-color="white" stop-opacity="0"/>
<stop offset="1" stop-color="#E6E6E6"/>
</linearGradient>
<linearGradient id="paint52_linear_2_608" x1="1452.88" y1="-738.663" x2="-178.482" y2="189.026" gradientUnits="userSpaceOnUse">
<stop stop-color="white" stop-opacity="0"/>
<stop offset="1" stop-color="#E6E6E6"/>
</linearGradient>
<linearGradient id="paint53_linear_2_608" x1="1452.49" y1="-746.126" x2="-193.765" y2="190.035" gradientUnits="userSpaceOnUse">
<stop stop-color="white" stop-opacity="0"/>
<stop offset="1" stop-color="#E6E6E6"/>
</linearGradient>
<linearGradient id="paint54_linear_2_608" x1="1465.82" y1="-790.466" x2="-329.327" y2="230.364" gradientUnits="userSpaceOnUse">
<stop stop-color="white" stop-opacity="0"/>
<stop offset="1" stop-color="#E6E6E6"/>
</linearGradient>
<linearGradient id="paint55_linear_2_608" x1="1464.72" y1="-799.182" x2="-345.309" y2="230.107" gradientUnits="userSpaceOnUse">
<stop stop-color="white" stop-opacity="0"/>
<stop offset="1" stop-color="#E6E6E6"/>
</linearGradient>
</defs>
</svg>
