<svg width="17" height="18" viewBox="0 0 17 18" fill="none" xmlns="http://www.w3.org/2000/svg">
<path d="M3.78248 0C1.895 0 0.363647 1.51172 0.363647 3.375V14.625C0.363647 16.4883 1.895 18 3.78248 18H14.039H15.1786C15.8089 18 16.3182 17.4973 16.3182 16.875C16.3182 16.2527 15.8089 15.75 15.1786 15.75V13.5C15.8089 13.5 16.3182 12.9973 16.3182 12.375V1.125C16.3182 0.502734 15.8089 0 15.1786 0H14.039H3.78248ZM3.78248 13.5H12.8994V15.75H3.78248C3.15213 15.75 2.64287 15.2473 2.64287 14.625C2.64287 14.0027 3.15213 13.5 3.78248 13.5ZM4.92209 5.0625C4.92209 4.75313 5.1785 4.5 5.49189 4.5H12.3296C12.6429 4.5 12.8994 4.75313 12.8994 5.0625C12.8994 5.37187 12.6429 5.625 12.3296 5.625H5.49189C5.1785 5.625 4.92209 5.37187 4.92209 5.0625ZM5.49189 6.75H12.3296C12.6429 6.75 12.8994 7.00313 12.8994 7.3125C12.8994 7.62187 12.6429 7.875 12.3296 7.875H5.49189C5.1785 7.875 4.92209 7.62187 4.92209 7.3125C4.92209 7.00313 5.1785 6.75 5.49189 6.75Z" fill="#B1B1B1"/>
</svg>
